<?xml version="1.0" encoding="utf-8"?>
<!-- Generator: Adobe Illustrator 23.0.3, SVG Export Plug-In . SVG Version: 6.00 Build 0)  -->
<svg version="1.1" id="logosvg.com" shape-rendering="geometricPrecision"
	 xmlns="http://www.w3.org/2000/svg" xmlns:xlink="http://www.w3.org/1999/xlink" x="0px" y="0px" viewBox="0 0 400 300"
	 style="enable-background:new 0 0 400 300;" xml:space="preserve">
<style type="text/css">
	.st0{fill:#333333;}
	.st1{fill:#FCB400;}
	.st2{fill:#18BFFF;}
	.st3{fill:#F82B60;}
	.st4{fill:#CE1B4E;}
</style>
<path id="text" class="st0" d="M165.4,155.8l-6.1-16.4c-0.2-0.7-1.2-0.7-1.4,0l-6.1,16.4c-0.1,0.4,0.1,0.8,0.5,1c0.1,0,0.2,0,0.3,0
	h12.2c0.4,0,0.8-0.3,0.8-0.8C165.4,155.9,165.4,155.9,165.4,155.8 M168.2,165h-19.3c-0.3,0-0.6,0.2-0.7,0.5l-3.8,10.2
	c-0.1,0.3-0.4,0.5-0.7,0.5h-8.4c-0.4,0-0.8-0.3-0.8-0.8c0-0.1,0-0.2,0.1-0.3l19.2-47.9c0.1-0.3,0.4-0.5,0.7-0.5h8
	c0.3,0,0.6,0.2,0.7,0.5l19.2,47.9c0.2,0.4,0,0.8-0.4,1c-0.1,0-0.2,0.1-0.3,0.1h-8.4c-0.3,0-0.6-0.2-0.7-0.5l-3.8-10.2
	C168.8,165.2,168.5,165,168.2,165 M186.5,143.6h7.1c0.4,0,0.8,0.3,0.8,0.8v31.1c0,0.4-0.3,0.8-0.8,0.8h-7.1c-0.4,0-0.8-0.3-0.8-0.8
	v-31.1C185.7,143.9,186,143.6,186.5,143.6L186.5,143.6 M220.4,151.2c0,0.4-0.3,0.8-0.8,0.8h-0.2c-3.5,0-6.1,0.8-7.8,2.5
	c-1.6,1.7-2.5,4.5-2.5,8.4v12.6c0,0.4-0.3,0.8-0.8,0.8h-7.1c-0.4,0-0.8-0.3-0.8-0.8v-31.1c0-0.4,0.3-0.8,0.8-0.8l0,0h7
	c0.4,0,0.8,0.3,0.8,0.8l0,0v6.2h0.1c0.8-2.5,2.2-4.5,4-5.9c1.8-1.4,4.1-2,6.8-2h0.4V151.2L220.4,151.2z M240,150.9
	c-0.4,0-0.8,0.3-0.8,0.8v12.9c0,1.3,0.3,2.3,0.8,2.8c0.5,0.6,1.4,0.8,2.7,0.8h0.7c0.4,0,0.8,0.3,0.8,0.8v6.5c0,0.4-0.3,0.8-0.8,0.8
	h-3c-3.2,0-5.6-0.8-7.3-2.4c-1.7-1.6-2.5-4-2.5-7.2v-15c0-0.4-0.3-0.8-0.8-0.8h-4.5c-0.4,0-0.8-0.3-0.8-0.8v-5.7
	c0-0.4,0.3-0.8,0.8-0.8l0,0h4.5c0.4,0,0.8-0.3,0.8-0.8l0,0v-11.5c0-0.4,0.3-0.8,0.8-0.8h7.1c0.4,0,0.8,0.3,0.8,0.8v11.5
	c0,0.4,0.3,0.8,0.8,0.8l0,0h5.2c0.4,0,0.8,0.3,0.8,0.8l0,0v5.7c0,0.4-0.3,0.8-0.8,0.8L240,150.9L240,150.9z M272.7,166.6
	c1.6-1.7,2.4-3.9,2.4-6.6c0-2.7-0.8-4.9-2.4-6.6c-1.6-1.7-3.8-2.5-6.4-2.5c-2.6,0-4.8,0.8-6.4,2.5c-1.6,1.7-2.4,3.9-2.4,6.6
	c0,2.7,0.8,4.9,2.4,6.6c1.6,1.7,3.8,2.5,6.4,2.5C269,169.1,271.1,168.3,272.7,166.6 M256.2,175.3c-2.4-1.4-4.3-3.4-5.7-6
	c-1.4-2.6-2.1-5.7-2.1-9.4c0-3.6,0.7-6.7,2.1-9.4c1.4-2.6,3.3-4.6,5.7-6c2.4-1.4,5-2,7.9-2c2.5,0,4.7,0.5,6.5,1.5
	c1.8,1,3.3,2.4,4.3,4.2h0.1v-3.8c0-0.4,0.3-0.8,0.8-0.8h7.1c0.4,0,0.8,0.3,0.8,0.8v31.1c0,0.4-0.3,0.8-0.8,0.8h-7.1
	c-0.4,0-0.8-0.3-0.8-0.8v-3.8H275c-1.1,1.8-2.5,3.2-4.3,4.2c-1.8,1-4,1.5-6.5,1.5C261.2,177.3,258.6,176.6,256.2,175.3 M313.2,166.6
	c1.6-1.7,2.4-3.9,2.4-6.6c0-2.7-0.8-4.9-2.4-6.6c-1.6-1.7-3.8-2.5-6.4-2.5c-2.6,0-4.8,0.8-6.4,2.5c-1.6,1.7-2.4,3.9-2.4,6.6
	c0,2.7,0.8,4.9,2.4,6.6c1.6,1.7,3.8,2.5,6.4,2.5C309.4,169.1,311.6,168.3,313.2,166.6 M302.5,175.8c-1.8-1-3.3-2.4-4.3-4.2H298v3.8
	c0,0.4-0.3,0.8-0.8,0.8h-7.1c-0.4,0-0.8-0.3-0.8-0.8v-47.9c0-0.4,0.3-0.8,0.8-0.8h7.1c0.4,0,0.8,0.3,0.8,0.8v20.6h0.1
	c1.1-1.8,2.5-3.2,4.3-4.2c1.8-1,4-1.5,6.5-1.5c2.9,0,5.5,0.7,7.9,2c2.4,1.4,4.3,3.4,5.7,6c1.4,2.6,2.1,5.7,2.1,9.4
	c0,3.6-0.7,6.7-2.1,9.4c-1.4,2.6-3.3,4.6-5.7,6c-2.4,1.4-5,2.1-7.9,2.1C306.5,177.3,304.3,176.8,302.5,175.8 M336.7,176.2h-7.1
	c-0.4,0-0.8-0.3-0.8-0.8v-47.9c0-0.4,0.3-0.8,0.8-0.8h7.1c0.4,0,0.8,0.3,0.8,0.8v47.9C337.5,175.9,337.2,176.2,336.7,176.2
	 M353.6,151.2c-1.2,0.9-2,2.3-2.4,4c-0.1,0.5,0.3,0.9,0.8,0.9h13.6c0.5,0,0.8-0.4,0.8-0.9c-0.3-1.7-1-3-2.1-4
	c-1.3-1.2-3.1-1.7-5.3-1.7C356.8,149.5,355,150.1,353.6,151.2 M371,147.1c2.8,3,4.2,7.3,4.2,12.9v0.9c0,0.4-0.3,0.8-0.8,0.8h-22.7
	c-0.4,0-0.8,0.3-0.8,0.8c0,0,0,0.1,0,0.1c0.4,2.1,1.3,3.7,2.7,4.9c1.7,1.4,3.8,2.1,6.3,2.1c3.3,0,6.3-1.3,9.1-3.8
	c0.3-0.3,0.9-0.2,1.1,0.1l3.5,5c0.2,0.3,0.2,0.8-0.1,1c-1.7,1.5-3.6,2.8-5.6,3.7c-2.3,1.1-4.9,1.7-8,1.7c-3.5,0-6.6-0.7-9.3-2.2
	c-2.6-1.4-4.7-3.5-6.1-6.1c-1.5-2.6-2.2-5.6-2.2-9.1c0-3.4,0.7-6.5,2.1-9.1c1.4-2.6,3.4-4.7,5.9-6.1c2.5-1.5,5.5-2.2,8.9-2.2
	C364.3,142.5,368.2,144.1,371,147.1 M195.3,132.1c0,2.9-2.4,5.3-5.3,5.3c-2.9,0-5.3-2.4-5.3-5.3s2.4-5.3,5.3-5.3
	C192.9,126.8,195.3,129.2,195.3,132.1"/>
<path id="orange" class="st1" d="M65.5,112.8l-34,14.1c-1.9,0.8-1.9,3.5,0,4.2l34.1,13.5c3,1.2,6.3,1.2,9.3,0l34.1-13.5
	c1.9-0.8,1.9-3.4,0-4.2l-34-14.1C72.1,111.5,68.6,111.5,65.5,112.8"/>
<path id="blue" class="st2" d="M73.4,152v33.8c0,1.6,1.6,2.7,3.1,2.1l38-14.8c0.9-0.3,1.4-1.2,1.4-2.1v-33.8c0-1.6-1.6-2.7-3.1-2.1
	l-38,14.8C74,150.3,73.4,151.1,73.4,152"/>
<path id="red" class="st3" d="M64.5,153.8l-11.3,5.4l-1.1,0.6l-23.8,11.4c-1.5,0.7-3.4-0.4-3.4-2v-31.7c0-0.6,0.3-1.1,0.7-1.5
	c0.2-0.2,0.4-0.3,0.6-0.4c0.6-0.3,1.4-0.4,2.1-0.2l36.1,14.3C66.2,150.3,66.3,152.9,64.5,153.8"/>
<path id="red_1_" class="st4" d="M64.5,153.8l-11.3,5.4l-27.7-23.3c0.2-0.2,0.4-0.3,0.6-0.4c0.6-0.3,1.4-0.4,2.1-0.2l36.1,14.3
	C66.2,150.3,66.3,152.9,64.5,153.8"/>
</svg>
